<svg width="24" height="24" viewBox="0 0 24 24" fill="none" xmlns="http://www.w3.org/2000/svg">
<mask id="mask0_543_3300" style="mask-type:alpha" maskUnits="userSpaceOnUse" x="0" y="0" width="24" height="24">
<rect width="24" height="24" fill="#D9D9D9"/>
</mask>
<g mask="url(#mask0_543_3300)">
<path d="M12 21.5C10.6872 21.5 9.45267 21.2507 8.2965 20.752C7.14033 20.2534 6.13467 19.5766 5.2795 18.7218C4.42433 17.8669 3.74725 16.8617 3.24825 15.706C2.74942 14.5504 2.5 13.3156 2.5 12.0018C2.5 10.6878 2.74933 9.4527 3.248 8.29653C3.74667 7.14036 4.42342 6.1347 5.27825 5.27953C6.13308 4.42436 7.13833 3.74728 8.294 3.24828C9.44967 2.74945 10.6844 2.50003 11.9983 2.50003C13.3123 2.50003 14.5473 2.74945 15.7035 3.24828C16.8597 3.74695 17.8653 4.42378 18.7205 5.27878C19.5757 6.13378 20.2528 7.1392 20.7518 8.29503C21.2506 9.45086 21.5 10.6859 21.5 12V13.2193C21.5 14.1321 21.1866 14.9071 20.5598 15.5443C19.9329 16.1814 19.163 16.5 18.25 16.5C17.6602 16.5 17.1133 16.3558 16.6095 16.0673C16.1057 15.7788 15.7076 15.3819 15.4152 14.8768C14.9832 15.3923 14.4727 15.7917 13.8837 16.075C13.2946 16.3584 12.6667 16.5 12 16.5C10.7513 16.5 9.68917 16.0622 8.8135 15.1865C7.93783 14.3109 7.5 13.2487 7.5 12C7.5 10.7514 7.93783 9.6892 8.8135 8.81353C9.68917 7.93786 10.7513 7.50003 12 7.50003C13.2487 7.50003 14.3108 7.93786 15.1865 8.81353C16.0622 9.6892 16.5 10.7514 16.5 12V13.2193C16.5 13.7103 16.6689 14.1299 17.0068 14.478C17.3446 14.826 17.759 15 18.25 15C18.741 15 19.1554 14.826 19.4932 14.478C19.8311 14.1299 20 13.7103 20 13.2193V12C20 9.7667 19.225 7.87503 17.675 6.32503C16.125 4.77503 14.2333 4.00003 12 4.00003C9.76667 4.00003 7.875 4.77503 6.325 6.32503C4.775 7.87503 4 9.7667 4 12C4 14.2334 4.775 16.125 6.325 17.675C7.875 19.225 9.76667 20 12 20H17V21.5H12ZM12 15C12.8333 15 13.5417 14.7084 14.125 14.125C14.7083 13.5417 15 12.8334 15 12C15 11.1667 14.7083 10.4584 14.125 9.87503C13.5417 9.2917 12.8333 9.00003 12 9.00003C11.1667 9.00003 10.4583 9.2917 9.875 9.87503C9.29167 10.4584 9 11.1667 9 12C9 12.8334 9.29167 13.5417 9.875 14.125C10.4583 14.7084 11.1667 15 12 15Z" fill="#1FC5FF"/>
</g>
</svg>
