<svg width="57" height="57" viewBox="0 0 57 57" fill="none" xmlns="http://www.w3.org/2000/svg">
<mask id="mask0_1903_1936" style="mask-type:alpha" maskUnits="userSpaceOnUse" x="0" y="0" width="57" height="57">
<rect x="0.332031" y="0.5" width="56" height="56" fill="#D9D9D9"/>
</mask>
<g mask="url(#mask0_1903_1936)">
<path d="M12 39.2285C12.4037 39.0372 12.8163 38.8764 13.2378 38.7461C13.6594 38.6162 14.1144 38.5513 14.6028 38.5513H17.1152V9.83317H14.6028C13.8651 9.83317 13.247 10.0867 12.7484 10.5938C12.2495 11.1009 12 11.715 12 12.436V39.2285ZM14.6028 50.6665C12.9077 50.6665 11.4666 50.0775 10.2797 48.8996C9.09325 47.7216 8.5 46.2913 8.5 44.6086V12.436C8.5 10.7408 9.09325 9.29981 10.2797 8.11292C11.4666 6.92642 12.9077 6.33317 14.6028 6.33317H31.25V9.83317H20.6153V38.5513H36.0514V30.2498H39.5514V42.0513H14.6028C13.8818 42.0513 13.2678 42.2959 12.7607 42.7851C12.2536 43.2747 12 43.8814 12 44.6051C12 45.3284 12.2536 45.9363 12.7607 46.4286C13.2678 46.9205 13.8818 47.1665 14.6028 47.1665H44.6667V27.9165H48.1667V50.6665H14.6028ZM41.1667 27.9165C41.1667 24.5013 42.3545 21.6058 44.7303 19.2301C47.106 16.8544 50.0014 15.6665 53.4167 15.6665C50.0014 15.6665 47.106 14.4786 44.7303 12.1029C42.3545 9.7272 41.1667 6.83173 41.1667 3.4165C41.1667 6.83173 39.9788 9.7272 37.6031 12.1029C35.2274 14.4786 32.3319 15.6665 28.9167 15.6665C32.3319 15.6665 35.2274 16.8544 37.6031 19.2301C39.9788 21.6058 41.1667 24.5013 41.1667 27.9165Z" fill="#005470"/>
</g>
</svg>
