<svg width="56" height="57" viewBox="0 0 56 57" fill="none" xmlns="http://www.w3.org/2000/svg">
<mask id="mask0_1903_1482" style="mask-type:alpha" maskUnits="userSpaceOnUse" x="0" y="0" width="56" height="57">
<rect y="0.5" width="56" height="56" fill="#D9D9D9"/>
</mask>
<g mask="url(#mask0_1903_1482)">
<path d="M2.33203 49.5V44.8333H53.6654V49.5H2.33203ZM9.33203 42.5C8.0487 42.5 6.95009 42.0431 6.0362 41.1292C5.12231 40.2153 4.66536 39.1167 4.66536 37.8333V12.1667C4.66536 10.8833 5.12231 9.78472 6.0362 8.87083C6.95009 7.95694 8.0487 7.5 9.33203 7.5H46.6654C47.9487 7.5 49.0473 7.95694 49.9612 8.87083C50.8751 9.78472 51.332 10.8833 51.332 12.1667V37.8333C51.332 39.1167 50.8751 40.2153 49.9612 41.1292C49.0473 42.0431 47.9487 42.5 46.6654 42.5H9.33203ZM9.33203 37.8333H46.6654V12.1667H9.33203V37.8333Z" fill="#005470"/>
</g>
</svg>
