<svg width="16" height="18" viewBox="0 0 16 18" fill="none" xmlns="http://www.w3.org/2000/svg">
<path d="M5.4 13.1535L8 10.5535L10.6 13.1535L11.6538 12.0997L9.05375 9.49973L11.6538 6.89973L10.6 5.84598L8 8.44598L5.4 5.84598L4.34625 6.89973L6.94625 9.49973L4.34625 12.0997L5.4 13.1535ZM3.30775 17.4997C2.80258 17.4997 2.375 17.3247 2.025 16.9747C1.675 16.6247 1.5 16.1972 1.5 15.692V2.99973H0.5V1.49973H5V0.615234H11V1.49973H15.5V2.99973H14.5V15.692C14.5 16.1972 14.325 16.6247 13.975 16.9747C13.625 17.3247 13.1974 17.4997 12.6923 17.4997H3.30775ZM13 2.99973H3V15.692C3 15.769 3.03208 15.8395 3.09625 15.9035C3.16025 15.9677 3.23075 15.9997 3.30775 15.9997H12.6923C12.7692 15.9997 12.8398 15.9677 12.9038 15.9035C12.9679 15.8395 13 15.769 13 15.692V2.99973Z" fill="#E64E37"/>
</svg>
