<svg width="46" height="38" viewBox="0 0 46 38" fill="none" xmlns="http://www.w3.org/2000/svg">
<path d="M40.9492 37.9998H5.05207C3.87335 37.9998 2.87565 37.5915 2.05898 36.7748C1.24232 35.9582 0.833984 34.9605 0.833984 33.7818V7.21792C0.833984 6.0392 1.24232 5.0415 2.05898 4.22484C2.87565 3.40817 3.87335 2.99984 5.05207 2.99984H27.2637V6.49984H5.05207C4.8724 6.49984 4.7079 6.5747 4.55857 6.72442C4.40885 6.87375 4.33398 7.03825 4.33398 7.21792V33.7818C4.33398 33.9614 4.40885 34.1259 4.55857 34.2753C4.7079 34.425 4.8724 34.4998 5.05207 34.4998H40.9492C41.1289 34.4998 41.2934 34.425 41.4427 34.2753C41.5925 34.1259 41.6673 33.9614 41.6673 33.7818V18.3462H45.1673V33.7818C45.1673 34.9605 44.759 35.9582 43.9423 36.7748C43.1257 37.5915 42.128 37.9998 40.9492 37.9998ZM9.8984 29.0702H24.7507V23.2818H9.8984V29.0702ZM9.8984 17.7179H24.7507V11.9295H9.8984V17.7179ZM30.3151 29.0702H36.1029V18.3462H30.3151V29.0702ZM37.0006 13.4998V8.83317H32.334V5.33317H37.0006V0.666504H40.5006V5.33317H45.1673V8.83317H40.5006V13.4998H37.0006Z" fill="#005470"/>
</svg>
