<svg width="45" height="46" viewBox="0 0 45 46" fill="none" xmlns="http://www.w3.org/2000/svg">
<path d="M4.3841 40.3332C3.22054 40.3332 2.22654 39.9211 1.4021 39.0971C0.578043 38.2726 0.166016 37.2786 0.166016 36.1151V4.88459C0.166016 3.72103 0.578043 2.72703 1.4021 1.90259C2.22654 1.07853 3.22054 0.666504 4.3841 0.666504H35.6146C36.7782 0.666504 37.7722 1.07853 38.5966 1.90259C39.4207 2.72703 39.8327 3.72103 39.8327 4.88459V19.6429C39.2583 19.3975 38.6831 19.1897 38.1072 19.0193C37.5312 18.8486 36.9397 18.7125 36.3327 18.611V4.88459C36.3327 4.70492 36.2578 4.54042 36.1081 4.39109C35.9588 4.24136 35.7943 4.1665 35.6146 4.1665H4.3841C4.20443 4.1665 4.03993 4.24136 3.8906 4.39109C3.74088 4.54042 3.66602 4.70492 3.66602 4.88459V36.1151C3.66602 36.2948 3.74088 36.4593 3.8906 36.6086C4.03993 36.7583 4.20443 36.8332 4.3841 36.8332H18.0522C18.1389 37.4791 18.2674 38.0901 18.4378 38.666C18.6085 39.242 18.8163 39.7977 19.0613 40.3332H4.3841ZM3.66602 36.8332V4.1665V18.611V18.436V36.8332ZM8.91602 31.3137H18.2896C18.3915 30.7066 18.5426 30.1151 18.7428 29.5392C18.9435 28.9632 19.1619 28.3883 19.3979 27.8143H8.91602V31.3137ZM8.91602 22.2498H23.7105C24.7154 21.3974 25.7878 20.6832 26.9276 20.1073C28.0674 19.5313 29.288 19.1222 30.5892 18.8799V18.7498H8.91602V22.2498ZM8.91602 13.1854H31.0827V9.686H8.91602V13.1854ZM33.9993 45.1346C31.0858 45.1346 28.6074 44.113 26.5642 42.0698C24.521 40.0265 23.4993 37.5481 23.4993 34.6346C23.4993 31.721 24.521 29.2426 26.5642 27.1994C28.6074 25.1562 31.0858 24.1346 33.9993 24.1346C36.9129 24.1346 39.3913 25.1562 41.4345 27.1994C43.4777 29.2426 44.4993 31.721 44.4993 34.6346C44.4993 37.5481 43.4777 40.0265 41.4345 42.0698C39.3913 44.113 36.9129 45.1346 33.9993 45.1346ZM32.9674 41.4998H35.0313V35.6665H40.8646V33.6027H35.0313V27.7693H32.9674V33.6027H27.1341V35.6665H32.9674V41.4998Z" fill="#005470"/>
</svg>
