<svg width="19" height="20" viewBox="0 0 19 20" fill="none" xmlns="http://www.w3.org/2000/svg">
<path d="M9.827 19.5V16.8577L15.2557 11.4537C15.3801 11.3359 15.5143 11.2501 15.6585 11.1962C15.8027 11.1424 15.9468 11.1155 16.091 11.1155C16.2483 11.1155 16.4004 11.1449 16.5473 11.2037C16.6943 11.2627 16.8278 11.3512 16.948 11.4692L17.873 12.4038C17.9807 12.5283 18.064 12.6629 18.123 12.8077C18.182 12.9526 18.2115 13.0974 18.2115 13.2423C18.2115 13.3871 18.1846 13.5345 18.1308 13.6845C18.0769 13.8345 17.991 13.9717 17.873 14.096L12.4693 19.5H9.827ZM11.0193 18.3078H11.9693L15.2153 15.046L14.7653 14.5613L14.2902 14.102L11.0193 17.3577V18.3078ZM2.30775 19.5C1.80258 19.5 1.375 19.325 1.025 18.975C0.675 18.625 0.5 18.1974 0.5 17.6923V2.30775C0.5 1.80258 0.675 1.375 1.025 1.025C1.375 0.675 1.80258 0.5 2.30775 0.5H10.25L15.5 5.75V8.548H14V6.5H9.5V2H2.30775C2.23075 2 2.16025 2.03208 2.09625 2.09625C2.03208 2.16025 2 2.23075 2 2.30775V17.6923C2 17.7693 2.03208 17.8398 2.09625 17.9038C2.16025 17.9679 2.23075 18 2.30775 18H7.6345V19.5H2.30775ZM14.7653 14.5613L14.2902 14.102L15.2153 15.046L14.7653 14.5613Z" fill="#00A2DB"/>
</svg>
