<svg width="32" height="32" viewBox="0 0 32 32" fill="none" xmlns="http://www.w3.org/2000/svg">
<path d="M16.0023 31.8337C13.8123 31.8337 11.7538 31.4181 9.82685 30.587C7.8999 29.7559 6.22379 28.628 4.79852 27.2032C3.37324 25.7785 2.24477 24.1031 1.4131 22.177C0.58171 20.2509 0.166016 18.193 0.166016 16.0032C0.166016 13.8132 0.581571 11.7548 1.41268 9.82782C2.24379 7.90088 3.37171 6.22477 4.79643 4.79949C6.22115 3.37421 7.89657 2.24574 9.82268 1.41408C11.7488 0.582686 13.8067 0.166992 15.9964 0.166992C18.1864 0.166992 20.2449 0.582547 22.1719 1.41366C24.0988 2.24477 25.7749 3.37269 27.2002 4.79741C28.6255 6.22213 29.7539 7.89755 30.5856 9.82366C31.417 11.7498 31.8327 13.8077 31.8327 15.9974C31.8327 18.1874 31.4171 20.2459 30.586 22.1728C29.7549 24.0998 28.627 25.7759 27.2023 27.2012C25.7775 28.6264 24.1021 29.7549 22.176 30.5866C20.2499 31.418 18.192 31.8337 16.0023 31.8337ZM18.6598 13.9587L19.5089 13.4587C19.4898 14.072 19.6896 14.5955 20.1085 15.0291C20.5271 15.463 21.0484 15.6799 21.6723 15.6799C22.2778 15.6799 22.7924 15.468 23.216 15.0441C23.6399 14.6202 23.8519 14.1056 23.8519 13.5003C23.8519 13.105 23.752 12.7359 23.5523 12.3928C23.3525 12.05 23.0806 11.7889 22.7364 11.6095L23.9639 10.9041L23.2269 9.60616L17.9223 12.6349L18.6598 13.9587ZM13.3389 13.9587L14.0764 12.6349L8.77185 9.60616L8.03477 10.9041L9.26227 11.6095C8.9181 11.7889 8.64615 12.05 8.44643 12.3928C8.24671 12.7359 8.14685 13.105 8.14685 13.5003C8.14685 14.1056 8.35879 14.6202 8.78268 15.0441C9.20629 15.468 9.72088 15.6799 10.3264 15.6799C10.9503 15.6799 11.4716 15.463 11.8902 15.0291C12.3091 14.5955 12.5089 14.072 12.4898 13.4587L13.3389 13.9587ZM16.0027 17.667C14.1671 17.667 12.55 18.2509 11.1514 19.4187C9.7531 20.5864 8.75907 22.0538 8.16935 23.8207H23.8293C23.2396 22.0538 22.2467 20.5864 20.8506 19.4187C19.4545 18.2509 17.8385 17.667 16.0027 17.667Z" fill="#E64E37"/>
</svg>
