<svg width="32" height="32" viewBox="0 0 32 32" fill="none" xmlns="http://www.w3.org/2000/svg">
<path d="M21.676 14.0132C22.2827 14.0132 22.797 13.8009 23.2189 13.3762C23.6409 12.9517 23.8519 12.4363 23.8519 11.8299C23.8519 11.2235 23.6396 10.7094 23.2152 10.2874C22.7907 9.86519 22.2752 9.65408 21.6685 9.65408C21.0621 9.65408 20.548 9.86644 20.126 10.2912C19.7041 10.7156 19.4931 11.231 19.4931 11.8374C19.4931 12.4438 19.7053 12.958 20.1298 13.3799C20.5542 13.8021 21.0696 14.0132 21.676 14.0132ZM10.3302 14.0132C10.9366 14.0132 11.4507 13.8009 11.8727 13.3762C12.2946 12.9517 12.5056 12.4363 12.5056 11.8299C12.5056 11.2235 12.2934 10.7094 11.8689 10.2874C11.4445 9.86519 10.9291 9.65408 10.3227 9.65408C9.71602 9.65408 9.20171 9.86644 8.77977 10.2912C8.35782 10.7156 8.14685 11.231 8.14685 11.8374C8.14685 12.4438 8.35907 12.958 8.78352 13.3799C9.20796 13.8021 9.72352 14.0132 10.3302 14.0132ZM15.9993 24.6541C17.7385 24.6541 19.3282 24.1674 20.7685 23.1941C22.2088 22.2207 23.2707 20.9339 23.9543 19.3337H8.04435C8.72796 20.9339 9.7899 22.2207 11.2302 23.1941C12.6705 24.1674 14.2602 24.6541 15.9993 24.6541ZM16.0023 31.8337C13.8123 31.8337 11.7538 31.4181 9.82685 30.587C7.8999 29.7559 6.22379 28.628 4.79852 27.2032C3.37324 25.7785 2.24477 24.1031 1.4131 22.177C0.58171 20.2509 0.166016 18.193 0.166016 16.0032C0.166016 13.8132 0.581571 11.7548 1.41268 9.82782C2.24379 7.90088 3.37171 6.22477 4.79643 4.79949C6.22115 3.37421 7.89657 2.24574 9.82268 1.41408C11.7488 0.582686 13.8067 0.166992 15.9964 0.166992C18.1864 0.166992 20.2449 0.582547 22.1719 1.41366C24.0988 2.24477 25.7749 3.37269 27.2002 4.79741C28.6255 6.22213 29.7539 7.89755 30.5856 9.82366C31.417 11.7498 31.8327 13.8077 31.8327 15.9974C31.8327 18.1874 31.4171 20.2459 30.586 22.1728C29.7549 24.0998 28.627 25.7759 27.2023 27.2012C25.7775 28.6264 24.1021 29.7549 22.176 30.5866C20.2499 31.418 18.192 31.8337 16.0023 31.8337Z" fill="#07894C"/>
</svg>
