<svg width="24" height="24" viewBox="0 0 24 24" fill="none" xmlns="http://www.w3.org/2000/svg">
<path d="M15.5929 16.9998C10.8776 16.9998 7.04133 13.1611 7.04004 8.4444C7.04133 7.24876 8.0146 6.27649 9.20731 6.27649C9.32994 6.27649 9.45126 6.28682 9.56744 6.30748C9.82302 6.35009 10.0657 6.4366 10.289 6.56701C10.3213 6.58637 10.3432 6.61738 10.3484 6.65354L10.8466 9.79498C10.8531 9.83242 10.8415 9.86858 10.8169 9.89569C10.542 10.2004 10.1909 10.4199 9.79979 10.5297L9.61133 10.5826L9.68232 10.7647C10.3251 12.4019 11.634 13.7099 13.2721 14.3555L13.4541 14.4278L13.507 14.2393C13.6167 13.848 13.8361 13.4968 14.1408 13.2218C14.1627 13.2011 14.1924 13.1908 14.2221 13.1908C14.2285 13.1908 14.235 13.1908 14.2428 13.1921L17.3833 13.6905C17.4207 13.697 17.4517 13.7176 17.4711 13.7499C17.6001 13.9733 17.6866 14.2173 17.7305 14.473C17.7512 14.5866 17.7602 14.7067 17.7602 14.8319C17.7602 16.0263 16.7882 16.9985 15.5929 16.9998Z" fill="#1FC5FF"/>
<path d="M23.9548 10.5748C23.7005 7.70063 22.3839 5.03434 20.2476 3.06786C18.0984 1.08976 15.3103 0 12.3943 0C5.99451 0 0.787405 5.20864 0.787405 11.6104C0.787405 13.7589 1.37987 15.8519 2.50159 17.6751L0 23.2143L8.00947 22.3608C9.40225 22.9315 10.8763 23.2207 12.393 23.2207C12.7919 23.2207 13.2011 23.2001 13.6116 23.1574C13.973 23.1187 14.3383 23.0619 14.6972 22.9896C20.0566 21.9063 23.969 17.1483 24 11.6723V11.6104C24 11.2617 23.9845 10.9131 23.9535 10.5761L23.9548 10.5748ZM8.31798 19.9295L3.88664 20.4021L5.20972 17.4698L4.94509 17.1147C4.92573 17.0889 4.90637 17.063 4.88443 17.0333C3.73561 15.4465 3.12892 13.5717 3.12892 11.6116C3.12892 6.50112 7.28532 2.34349 12.3943 2.34349C17.1807 2.34349 21.2377 6.07892 21.6288 10.8473C21.6494 11.1029 21.6611 11.3599 21.6611 11.6129C21.6611 11.6852 21.6598 11.7563 21.6585 11.8324C21.5604 16.1076 18.5747 19.7384 14.3977 20.6629C14.0788 20.7339 13.7523 20.7881 13.427 20.823C13.0888 20.8617 12.7416 20.8811 12.3969 20.8811C11.1694 20.8811 9.97666 20.6435 8.84979 20.1735C8.72458 20.1232 8.60194 20.0689 8.48706 20.0134L8.31927 19.9321L8.31798 19.9295Z" fill="#1FC5FF"/>
</svg>
