<svg width="57" height="57" viewBox="0 0 57 57" fill="none" xmlns="http://www.w3.org/2000/svg">
<mask id="mask0_1903_193" style="mask-type:alpha" maskUnits="userSpaceOnUse" x="0" y="0" width="57" height="57">
<rect x="0.667969" y="0.5" width="56" height="56" fill="#D9D9D9"/>
</mask>
<g mask="url(#mask0_1903_193)">
<path d="M27.2311 48.3332V44.8332H44.2819C44.4764 44.8332 44.6448 44.7733 44.7871 44.6535C44.929 44.5341 45 44.3772 45 44.1828V27.8628C45 23.4023 43.404 19.6472 40.212 16.5975C37.0204 13.5478 33.1719 12.023 28.6667 12.023C24.1614 12.023 20.3129 13.5478 17.1213 16.5975C13.9293 19.6472 12.3333 23.4023 12.3333 27.8628V41.6021H10.5833C9.4645 41.6021 8.50433 41.2126 7.70283 40.4337C6.90094 39.6543 6.5 38.7053 6.5 37.5864V33.0545C6.5 32.2977 6.71544 31.6043 7.14633 30.9743C7.57722 30.3447 8.13956 29.8386 8.83333 29.4559L8.94125 26.4763C9.13258 23.9364 9.79214 21.5836 10.9199 19.4179C12.0477 17.2522 13.494 15.3669 15.2587 13.7619C17.0239 12.157 19.0611 10.9065 21.3703 10.0105C23.6799 9.1145 26.1121 8.6665 28.6667 8.6665C31.2213 8.6665 33.6474 9.1145 35.9449 10.0105C38.2425 10.9065 40.2797 12.1509 42.0565 13.7438C43.8333 15.3367 45.2796 17.216 46.3953 19.3818C47.5111 21.5479 48.1766 23.9006 48.3921 26.4401L48.5 29.3614C49.179 29.6815 49.7376 30.1392 50.1759 30.7346C50.6142 31.33 50.8333 31.994 50.8333 32.7267V37.9364C50.8333 38.6691 50.6142 39.3331 50.1759 39.9285C49.7376 40.5239 49.179 40.9816 48.5 41.3017V44.1828C48.5 45.3311 48.088 46.31 47.2639 47.1193C46.4395 47.9285 45.4455 48.3332 44.2819 48.3332H27.2311ZM22.1153 32.6281C21.544 32.6281 21.0571 32.4344 20.6546 32.0471C20.2525 31.6598 20.0514 31.1803 20.0514 30.6086C20.0514 30.0373 20.2525 29.5543 20.6546 29.1596C21.0571 28.7645 21.544 28.5669 22.1153 28.5669C22.6869 28.5669 23.1738 28.7645 23.5759 29.1596C23.9784 29.5543 24.1797 30.0373 24.1797 30.6086C24.1797 31.1803 23.9784 31.6598 23.5759 32.0471C23.1738 32.4344 22.6869 32.6281 22.1153 32.6281ZM35.2181 32.6281C34.6464 32.6281 34.1595 32.4344 33.7574 32.0471C33.3549 31.6598 33.1537 31.1803 33.1537 30.6086C33.1537 30.0373 33.3549 29.5543 33.7574 29.1596C34.1595 28.7645 34.6464 28.5669 35.2181 28.5669C35.7894 28.5669 36.2763 28.7645 36.6788 29.1596C37.0809 29.5543 37.2819 30.0373 37.2819 30.6086C37.2819 31.1803 37.0809 31.6598 36.6788 32.0471C36.2763 32.4344 35.7894 32.6281 35.2181 32.6281ZM15.5329 28.9665C15.2906 25.1585 16.4752 21.9 19.0866 19.191C21.698 16.4824 24.9302 15.1281 28.7833 15.1281C32.0201 15.1281 34.8761 16.1295 37.3513 18.1323C39.827 20.135 41.3295 22.7278 41.8588 25.9104C38.5443 25.8715 35.4818 25.0012 32.6713 23.2994C29.8608 21.5973 27.7032 19.2639 26.1986 16.2994C25.6063 19.2009 24.365 21.766 22.4746 23.9948C20.5838 26.2235 18.2699 27.8807 15.5329 28.9665Z" fill="#005470"/>
</g>
</svg>
