<svg width="56" height="56" viewBox="0 0 56 56" fill="none" xmlns="http://www.w3.org/2000/svg">
<mask id="mask0_543_3269" style="mask-type:alpha" maskUnits="userSpaceOnUse" x="0" y="0" width="56" height="56">
<rect width="56" height="56" fill="#D9D9D9"/>
</mask>
<g mask="url(#mask0_543_3269)">
<path d="M26.5643 47.8333V44.3333H43.6152C43.8096 44.3333 43.978 44.2734 44.1203 44.1537C44.2623 44.0343 44.3333 43.8773 44.3333 43.6829V27.363C44.3333 22.9024 42.7373 19.1473 39.5453 16.0977C36.3536 13.048 32.5052 11.5232 27.9999 11.5232C23.4946 11.5232 19.6462 13.048 16.4546 16.0977C13.2626 19.1473 11.6666 22.9024 11.6666 27.363V41.1022H9.91659C8.79775 41.1022 7.83759 40.7128 7.03609 39.9338C6.2342 39.1545 5.83325 38.2054 5.83325 37.0866V32.5547C5.83325 31.7979 6.0487 31.1045 6.47959 30.4745C6.91047 29.8449 7.47281 29.3387 8.16659 28.9561L8.2745 25.9764C8.46584 23.4366 9.12539 21.0838 10.2532 18.9181C11.3809 16.7524 12.8272 14.867 14.592 13.2621C16.3572 11.6571 18.3944 10.4067 20.7036 9.51066C23.0132 8.61466 25.4453 8.16666 27.9999 8.16666C30.5545 8.16666 32.9806 8.61466 35.2782 9.51066C37.5757 10.4067 39.6129 11.6511 41.3898 13.244C43.1666 14.8369 44.6129 16.7162 45.7286 18.8819C46.8443 21.048 47.5099 23.4008 47.7253 25.9402L47.8333 28.8616C48.5123 29.1816 49.0709 29.6394 49.5092 30.2347C49.9475 30.8301 50.1666 31.4942 50.1666 32.2268V37.4366C50.1666 38.1692 49.9475 38.8333 49.5092 39.4287C49.0709 40.024 48.5123 40.4818 47.8333 40.8018V43.6829C47.8333 44.8313 47.4212 45.8101 46.5972 46.6194C45.7727 47.4287 44.7787 47.8333 43.6152 47.8333H26.5643ZM21.4485 32.1282C20.8772 32.1282 20.3903 31.9346 19.9878 31.5472C19.5857 31.1599 19.3847 30.6804 19.3847 30.1087C19.3847 29.5375 19.5857 29.0545 19.9878 28.6597C20.3903 28.2646 20.8772 28.0671 21.4485 28.0671C22.0202 28.0671 22.5071 28.2646 22.9092 28.6597C23.3117 29.0545 23.5129 29.5375 23.5129 30.1087C23.5129 30.6804 23.3117 31.1599 22.9092 31.5472C22.5071 31.9346 22.0202 32.1282 21.4485 32.1282ZM34.5513 32.1282C33.9797 32.1282 33.4928 31.9346 33.0907 31.5472C32.6882 31.1599 32.4869 30.6804 32.4869 30.1087C32.4869 29.5375 32.6882 29.0545 33.0907 28.6597C33.4928 28.2646 33.9797 28.0671 34.5513 28.0671C35.1226 28.0671 35.6095 28.2646 36.012 28.6597C36.4141 29.0545 36.6152 29.5375 36.6152 30.1087C36.6152 30.6804 36.4141 31.1599 36.012 31.5472C35.6095 31.9346 35.1226 32.1282 34.5513 32.1282ZM14.8662 28.4667C14.6239 24.6587 15.8084 21.4002 18.4198 18.6912C21.0312 15.9825 24.2635 14.6282 28.1166 14.6282C31.3533 14.6282 34.2093 15.6296 36.6846 17.6324C39.1603 19.6352 40.6627 22.2279 41.192 25.4106C37.8775 25.3717 34.815 24.5013 32.0045 22.7996C29.194 21.0974 27.0364 18.7641 25.5318 15.7996C24.9396 18.7011 23.6982 21.2662 21.8078 23.4949C19.9171 25.7236 17.6032 27.3809 14.8662 28.4667Z" fill="#045470"/>
</g>
</svg>
