<svg width="56" height="56" viewBox="0 0 56 56" fill="none" xmlns="http://www.w3.org/2000/svg">
<mask id="mask0_543_3272" style="mask-type:alpha" maskUnits="userSpaceOnUse" x="0" y="0" width="56" height="56">
<rect width="56" height="56" fill="#D9D9D9"/>
</mask>
<g mask="url(#mask0_543_3272)">
<path d="M11.6667 38.7287C12.0704 38.5373 12.483 38.3765 12.9046 38.2462C13.3261 38.1164 13.7811 38.0514 14.2696 38.0514H16.782V9.33332H14.2696C13.5319 9.33332 12.9137 9.58688 12.4152 10.094C11.9162 10.6011 11.6667 11.2152 11.6667 11.9362V38.7287ZM14.2696 50.1667C12.5744 50.1667 11.1334 49.5777 9.9465 48.3997C8.76 47.2218 8.16675 45.7915 8.16675 44.1087V11.9362C8.16675 10.241 8.76 8.79996 9.9465 7.61307C11.1334 6.42657 12.5744 5.83332 14.2696 5.83332H30.9167V9.33332H20.282V38.0514H35.7182V29.75H39.2182V41.5514H14.2696C13.5486 41.5514 12.9345 41.796 12.4274 42.2852C11.9203 42.7749 11.6667 43.3815 11.6667 44.1052C11.6667 44.8286 11.9203 45.4364 12.4274 45.9287C12.9345 46.4207 13.5486 46.6667 14.2696 46.6667H44.3334V27.4167H47.8334V50.1667H14.2696ZM40.8334 27.4167C40.8334 24.0014 42.0213 21.106 44.397 18.7302C46.7727 16.3545 49.6682 15.1667 53.0834 15.1667C49.6682 15.1667 46.7727 13.9788 44.397 11.6031C42.0213 9.22735 40.8334 6.33188 40.8334 2.91666C40.8334 6.33188 39.6456 9.22735 37.2698 11.6031C34.8941 13.9788 31.9986 15.1667 28.5834 15.1667C31.9986 15.1667 34.8941 16.3545 37.2698 18.7302C39.6456 21.106 40.8334 24.0014 40.8334 27.4167Z" fill="#045470"/>
</g>
</svg>
