<svg width="56" height="56" viewBox="0 0 56 56" fill="none" xmlns="http://www.w3.org/2000/svg">
<mask id="mask0_543_3275" style="mask-type:alpha" maskUnits="userSpaceOnUse" x="0" y="0" width="56" height="56">
<rect width="56" height="56" fill="#D9D9D9"/>
</mask>
<g mask="url(#mask0_543_3275)">
<path d="M28.004 50.1667C24.938 50.1667 22.0561 49.5849 19.3584 48.4213C16.6607 47.2578 14.3141 45.6787 12.3188 43.6841C10.3234 41.6895 8.7435 39.3439 7.57917 36.6473C6.41522 33.9508 5.83325 31.0697 5.83325 28.0041C5.83325 24.9381 6.41503 22.0562 7.57859 19.3585C8.74214 16.6608 10.3212 14.3142 12.3158 12.3188C14.3104 10.3235 16.656 8.74359 19.3526 7.57926C22.0491 6.41532 24.9302 5.83334 27.9958 5.83334C31.0618 5.83334 33.9437 6.41512 36.6414 7.57868C39.3391 8.74223 41.6857 10.3213 43.6811 12.3159C45.6765 14.3105 47.2563 16.6561 48.4207 19.3527C49.5846 22.0492 50.1666 24.9303 50.1666 27.9959C50.1666 31.0619 49.5848 33.9438 48.4213 36.6415C47.2577 39.3392 45.6786 41.6858 43.684 43.6812C41.6894 45.6766 39.3438 47.2564 36.6473 48.4208C33.9507 49.5847 31.0696 50.1667 28.004 50.1667ZM21.2333 45.3833L24.6615 37.5754C23.2051 37.0613 21.948 36.2643 20.8903 35.1843C19.8325 34.104 19.0255 32.837 18.4694 31.3833L10.5717 34.65C11.4813 37.1389 12.8694 39.3167 14.7361 41.1833C16.6028 43.05 18.7685 44.45 21.2333 45.3833ZM18.4694 24.6167C18.996 23.163 19.7924 21.9059 20.8588 20.8454C21.9251 19.7849 23.1777 18.993 24.6166 18.4695L21.3499 10.5718C18.8463 11.5203 16.6611 12.9278 14.7944 14.7945C12.9278 16.6612 11.5202 18.8463 10.5717 21.35L18.4694 24.6167ZM27.9947 34.6413C29.838 34.6413 31.4066 33.9961 32.7004 32.7058C33.9943 31.4154 34.6412 29.8486 34.6412 28.0053C34.6412 26.1619 33.996 24.5933 32.7057 23.2995C31.4153 22.0057 29.8485 21.3588 28.0052 21.3588C26.1618 21.3588 24.5933 22.0039 23.2994 23.2943C22.0056 24.5846 21.3587 26.1514 21.3587 27.9948C21.3587 29.8381 22.0038 31.4067 23.2942 32.7005C24.5845 33.9943 26.1513 34.6413 27.9947 34.6413ZM34.7666 45.3833C37.2166 44.45 39.3652 43.0597 41.2124 41.2125C43.0596 39.3653 44.4499 37.2167 45.3833 34.7667L37.5753 31.3384C37.0818 32.7773 36.2996 34.0262 35.2286 35.0852C34.1576 36.1441 32.9147 36.9592 31.4999 37.5305L34.7666 45.3833ZM37.5304 24.5L45.3833 21.2333C44.4499 18.7833 43.0596 16.6347 41.2124 14.7875C39.3652 12.9403 37.2166 11.55 34.7666 10.6167L31.4999 18.5413C32.8848 19.0795 34.0932 19.8633 35.1253 20.8927C36.1575 21.9217 36.9591 23.1241 37.5304 24.5Z" fill="#045470"/>
</g>
</svg>
