<svg width="40" height="40" viewBox="0 0 40 40" fill="none" xmlns="http://www.w3.org/2000/svg">
<mask id="mask0_1261_4004" style="mask-type:alpha" maskUnits="userSpaceOnUse" x="0" y="0" width="40" height="40">
<rect width="40" height="40" fill="#D9D9D9"/>
</mask>
<g mask="url(#mask0_1261_4004)">
<path d="M25.676 18.0128C26.2827 18.0128 26.797 17.8004 27.2189 17.3757C27.6409 16.9512 27.8519 16.4358 27.8519 15.8294C27.8519 15.223 27.6396 14.7089 27.2152 14.2869C26.7907 13.8647 26.2752 13.6536 25.6685 13.6536C25.0621 13.6536 24.548 13.8659 24.126 14.2907C23.7041 14.7151 23.4931 15.2305 23.4931 15.8369C23.4931 16.4433 23.7053 16.9575 24.1298 17.3794C24.5542 17.8016 25.0696 18.0128 25.676 18.0128ZM14.3302 18.0128C14.9366 18.0128 15.4507 17.8004 15.8727 17.3757C16.2946 16.9512 16.5056 16.4358 16.5056 15.8294C16.5056 15.223 16.2934 14.7089 15.8689 14.2869C15.4445 13.8647 14.9291 13.6536 14.3227 13.6536C13.716 13.6536 13.2017 13.8659 12.7798 14.2907C12.3578 14.7151 12.1468 15.2305 12.1468 15.8369C12.1468 16.4433 12.3591 16.9575 12.7835 17.3794C13.208 17.8016 13.7235 18.0128 14.3302 18.0128ZM19.9993 22.4998C18.2602 22.4998 16.6705 22.9865 15.2302 23.9598C13.7899 24.9332 12.728 26.22 12.0443 27.8203H14.2493C14.8605 26.7925 15.673 25.98 16.6868 25.3828C17.7007 24.7855 18.8049 24.4869 19.9993 24.4869C21.1938 24.4869 22.298 24.7855 23.3118 25.3828C24.3257 25.98 25.1382 26.7925 25.7493 27.8203H27.9543C27.2707 26.22 26.2088 24.9332 24.7685 23.9598C23.3282 22.9865 21.7385 22.4998 19.9993 22.4998ZM20.0023 35.8332C17.8123 35.8332 15.7538 35.4176 13.8268 34.5865C11.8999 33.7554 10.2238 32.6275 8.79852 31.2028C7.37324 29.778 6.24477 28.1026 5.4131 26.1765C4.58171 24.2504 4.16602 22.1925 4.16602 20.0028C4.16602 17.8128 4.58157 15.7543 5.41268 13.8273C6.24379 11.9004 7.37171 10.2243 8.79643 8.799C10.2212 7.37373 11.8966 6.24525 13.8227 5.41359C15.7488 4.5822 17.8067 4.1665 19.9964 4.1665C22.1864 4.1665 24.2449 4.58206 26.1719 5.41317C28.0988 6.24428 29.7749 7.3722 31.2002 8.79692C32.6255 10.2216 33.7539 11.8971 34.5856 13.8232C35.417 15.7493 35.8327 17.8072 35.8327 19.9969C35.8327 22.1869 35.4171 24.2454 34.586 26.1723C33.7549 28.0993 32.627 29.7754 31.2023 31.2007C29.7775 32.6259 28.1021 33.7544 26.176 34.5861C24.2499 35.4175 22.192 35.8332 20.0023 35.8332ZM19.9993 33.3332C23.7216 33.3332 26.8743 32.0415 29.4577 29.4582C32.041 26.8748 33.3327 23.7221 33.3327 19.9998C33.3327 16.2776 32.041 13.1248 29.4577 10.5415C26.8743 7.95817 23.7216 6.6665 19.9993 6.6665C16.2771 6.6665 13.1243 7.95817 10.541 10.5415C7.95768 13.1248 6.66602 16.2776 6.66602 19.9998C6.66602 23.7221 7.95768 26.8748 10.541 29.4582C13.1243 32.0415 16.2771 33.3332 19.9993 33.3332Z" fill="#9B9B9B"/>
</g>
</svg>
