<svg width="40" height="40" viewBox="0 0 40 40" fill="none" xmlns="http://www.w3.org/2000/svg">
<mask id="mask0_1261_4001" style="mask-type:alpha" maskUnits="userSpaceOnUse" x="0" y="0" width="40" height="40">
<rect width="40" height="40" fill="#D9D9D9"/>
</mask>
<g mask="url(#mask0_1261_4001)">
<path d="M20.0023 35.8332C17.8123 35.8332 15.7538 35.4176 13.8268 34.5865C11.8999 33.7554 10.2238 32.6275 8.79852 31.2028C7.37324 29.778 6.24477 28.1026 5.4131 26.1765C4.58171 24.2504 4.16602 22.1925 4.16602 20.0028C4.16602 17.8128 4.58157 15.7543 5.41268 13.8273C6.24379 11.9004 7.37171 10.2243 8.79643 8.799C10.2212 7.37373 11.8966 6.24525 13.8227 5.41359C15.7488 4.5822 17.8067 4.1665 19.9964 4.1665C22.1864 4.1665 24.2449 4.58206 26.1719 5.41317C28.0988 6.24428 29.7749 7.3722 31.2002 8.79692C32.6255 10.2216 33.7539 11.8971 34.5856 13.8232C35.417 15.7493 35.8327 17.8072 35.8327 19.9969C35.8327 22.1869 35.4171 24.2454 34.586 26.1723C33.7549 28.0993 32.627 29.7754 31.2023 31.2007C29.7775 32.6259 28.1021 33.7544 26.176 34.5861C24.2499 35.4175 22.192 35.8332 20.0023 35.8332ZM19.9993 33.3332C23.6938 33.3332 26.8396 32.0346 29.4368 29.4373C32.0341 26.8401 33.3327 23.6943 33.3327 19.9998C33.3327 16.3054 32.0341 13.1596 29.4368 10.5623C26.8396 7.96512 23.6938 6.6665 19.9993 6.6665C16.3049 6.6665 13.1591 7.96512 10.5618 10.5623C7.96463 13.1596 6.66602 16.3054 6.66602 19.9998C6.66602 23.6943 7.96463 26.8401 10.5618 29.4373C13.1591 32.0346 16.3049 33.3332 19.9993 33.3332ZM22.6598 17.9582L23.5089 17.4582C23.4898 18.0715 23.6896 18.595 24.1085 19.0286C24.5271 19.4625 25.0484 19.6794 25.6723 19.6794C26.2778 19.6794 26.7924 19.4675 27.216 19.0436C27.6399 18.6197 27.8519 18.1051 27.8519 17.4998C27.8519 17.1046 27.752 16.7354 27.5523 16.3923C27.3525 16.0496 27.0806 15.7884 26.7364 15.609L27.9639 14.9036L27.2269 13.6057L21.9223 16.6344L22.6598 17.9582ZM17.3389 17.9582L18.0764 16.6344L12.7718 13.6057L12.0348 14.9036L13.2623 15.609C12.9181 15.7884 12.6462 16.0496 12.4464 16.3923C12.2467 16.7354 12.1468 17.1046 12.1468 17.4998C12.1468 18.1051 12.3588 18.6197 12.7827 19.0436C13.2063 19.4675 13.7209 19.6794 14.3264 19.6794C14.9503 19.6794 15.4716 19.4625 15.8902 19.0286C16.3091 18.595 16.5089 18.0715 16.4898 17.4582L17.3389 17.9582ZM20.0027 21.6665C18.1671 21.6665 16.55 22.2504 15.1514 23.4182C13.7531 24.5859 12.7591 26.0533 12.1693 27.8203H27.8293C27.2396 26.0533 26.2467 24.5859 24.8506 23.4182C23.4545 22.2504 21.8385 21.6665 20.0027 21.6665Z" fill="#9B9B9B"/>
</g>
</svg>
