<svg width="32" height="32" viewBox="0 0 32 32" fill="none" xmlns="http://www.w3.org/2000/svg">
<mask id="mask0_543_3285" style="mask-type:alpha" maskUnits="userSpaceOnUse" x="0" y="0" width="32" height="32">
<rect width="32" height="32" fill="#D9D9D9"/>
</mask>
<g mask="url(#mask0_543_3285)">
<path d="M3.99992 26.6667C3.26659 26.6667 2.63881 26.4056 2.11659 25.8833C1.59436 25.3611 1.33325 24.7333 1.33325 24V8.00001C1.33325 7.26668 1.59436 6.6389 2.11659 6.11668C2.63881 5.59445 3.26659 5.33334 3.99992 5.33334H6.66659C7.39992 5.33334 8.0277 5.59445 8.54992 6.11668C9.07214 6.6389 9.33325 7.26668 9.33325 8.00001V24C9.33325 24.7333 9.07214 25.3611 8.54992 25.8833C8.0277 26.4056 7.39992 26.6667 6.66659 26.6667H3.99992ZM3.99992 24.0333H6.66659V7.96668H3.99992V24.0333ZM14.6666 26.6667C13.9333 26.6667 13.3055 26.4056 12.7833 25.8833C12.261 25.3611 11.9999 24.7333 11.9999 24V8.00001C11.9999 7.26668 12.261 6.6389 12.7833 6.11668C13.3055 5.59445 13.9333 5.33334 14.6666 5.33334H27.9999C28.7333 5.33334 29.361 5.59445 29.8833 6.11668C30.4055 6.6389 30.6666 7.26668 30.6666 8.00001V24C30.6666 24.7333 30.4055 25.3611 29.8833 25.8833C29.361 26.4056 28.7333 26.6667 27.9999 26.6667H14.6666ZM14.6666 24.0333H27.9999V7.96668H14.6666V24.0333Z" fill="#00A2DB"/>
</g>
</svg>
